<mxfile host="app.diagrams.net" agent="Mozilla/5.0 (Windows NT 10.0; Win64; x64) AppleWebKit/537.36 (KHTML, like Gecko) Chrome/114.0.0.0 Safari/537.36" version="24.7.16">
  <diagram name="第 1 页" id="kruOMTznKFDR86Ai5KK0">
    <mxGraphModel dx="1218" dy="619" grid="1" gridSize="10" guides="1" tooltips="1" connect="1" arrows="1" fold="1" page="1" pageScale="1" pageWidth="827" pageHeight="1169" math="0" shadow="0">
      <root>
        <mxCell id="0" />
        <mxCell id="1" parent="0" />
        <mxCell id="GSp_kSGXKq6PRePlWTF6-20" style="edgeStyle=orthogonalEdgeStyle;rounded=0;orthogonalLoop=1;jettySize=auto;html=1;entryX=0.5;entryY=0;entryDx=0;entryDy=0;" edge="1" parent="1" source="GSp_kSGXKq6PRePlWTF6-2" target="GSp_kSGXKq6PRePlWTF6-6">
          <mxGeometry relative="1" as="geometry" />
        </mxCell>
        <mxCell id="GSp_kSGXKq6PRePlWTF6-22" style="edgeStyle=orthogonalEdgeStyle;rounded=0;orthogonalLoop=1;jettySize=auto;html=1;entryX=0.5;entryY=0;entryDx=0;entryDy=0;" edge="1" parent="1" source="GSp_kSGXKq6PRePlWTF6-2" target="GSp_kSGXKq6PRePlWTF6-14">
          <mxGeometry relative="1" as="geometry" />
        </mxCell>
        <mxCell id="GSp_kSGXKq6PRePlWTF6-2" value="登录&lt;div&gt;注册&lt;/div&gt;" style="shape=cube;whiteSpace=wrap;html=1;boundedLbl=1;backgroundOutline=1;darkOpacity=0.05;darkOpacity2=0.1;" vertex="1" parent="1">
          <mxGeometry x="150" y="170" width="90" height="80" as="geometry" />
        </mxCell>
        <mxCell id="GSp_kSGXKq6PRePlWTF6-6" value="zookeeper&lt;div&gt;配置中心&lt;/div&gt;" style="shape=dataStorage;whiteSpace=wrap;html=1;fixedSize=1;" vertex="1" parent="1">
          <mxGeometry x="210" y="340" width="100" height="80" as="geometry" />
        </mxCell>
        <mxCell id="GSp_kSGXKq6PRePlWTF6-21" style="edgeStyle=orthogonalEdgeStyle;rounded=0;orthogonalLoop=1;jettySize=auto;html=1;entryX=0.5;entryY=0;entryDx=0;entryDy=0;" edge="1" parent="1" source="GSp_kSGXKq6PRePlWTF6-7" target="GSp_kSGXKq6PRePlWTF6-6">
          <mxGeometry relative="1" as="geometry" />
        </mxCell>
        <mxCell id="GSp_kSGXKq6PRePlWTF6-23" style="edgeStyle=orthogonalEdgeStyle;rounded=0;orthogonalLoop=1;jettySize=auto;html=1;entryX=0.5;entryY=0;entryDx=0;entryDy=0;" edge="1" parent="1" source="GSp_kSGXKq6PRePlWTF6-7" target="GSp_kSGXKq6PRePlWTF6-14">
          <mxGeometry relative="1" as="geometry" />
        </mxCell>
        <mxCell id="GSp_kSGXKq6PRePlWTF6-7" value="用户&lt;div&gt;好友&lt;/div&gt;" style="shape=cube;whiteSpace=wrap;html=1;boundedLbl=1;backgroundOutline=1;darkOpacity=0.05;darkOpacity2=0.1;" vertex="1" parent="1">
          <mxGeometry x="280" y="220" width="90" height="80" as="geometry" />
        </mxCell>
        <mxCell id="GSp_kSGXKq6PRePlWTF6-19" style="edgeStyle=orthogonalEdgeStyle;rounded=0;orthogonalLoop=1;jettySize=auto;html=1;entryX=0;entryY=0.5;entryDx=0;entryDy=0;" edge="1" parent="1" source="GSp_kSGXKq6PRePlWTF6-8" target="GSp_kSGXKq6PRePlWTF6-6">
          <mxGeometry relative="1" as="geometry">
            <mxPoint x="200" y="380" as="targetPoint" />
          </mxGeometry>
        </mxCell>
        <mxCell id="GSp_kSGXKq6PRePlWTF6-8" value="抽象层" style="shape=cube;whiteSpace=wrap;html=1;boundedLbl=1;backgroundOutline=1;darkOpacity=0.05;darkOpacity2=0.1;" vertex="1" parent="1">
          <mxGeometry x="70" y="340" width="90" height="80" as="geometry" />
        </mxCell>
        <mxCell id="GSp_kSGXKq6PRePlWTF6-18" style="edgeStyle=orthogonalEdgeStyle;rounded=0;orthogonalLoop=1;jettySize=auto;html=1;entryX=0.548;entryY=1.013;entryDx=0;entryDy=0;entryPerimeter=0;" edge="1" parent="1" source="GSp_kSGXKq6PRePlWTF6-9" target="GSp_kSGXKq6PRePlWTF6-6">
          <mxGeometry relative="1" as="geometry">
            <mxPoint x="265" y="430" as="targetPoint" />
          </mxGeometry>
        </mxCell>
        <mxCell id="GSp_kSGXKq6PRePlWTF6-9" value="群组" style="shape=cube;whiteSpace=wrap;html=1;boundedLbl=1;backgroundOutline=1;darkOpacity=0.05;darkOpacity2=0.1;" vertex="1" parent="1">
          <mxGeometry x="220" y="450" width="90" height="80" as="geometry" />
        </mxCell>
        <mxCell id="GSp_kSGXKq6PRePlWTF6-26" style="edgeStyle=orthogonalEdgeStyle;rounded=0;orthogonalLoop=1;jettySize=auto;html=1;" edge="1" parent="1" source="GSp_kSGXKq6PRePlWTF6-10">
          <mxGeometry relative="1" as="geometry">
            <mxPoint x="510" y="390" as="targetPoint" />
          </mxGeometry>
        </mxCell>
        <mxCell id="GSp_kSGXKq6PRePlWTF6-10" value="离线&lt;div&gt;消息&lt;/div&gt;" style="shape=cube;whiteSpace=wrap;html=1;boundedLbl=1;backgroundOutline=1;darkOpacity=0.05;darkOpacity2=0.1;" vertex="1" parent="1">
          <mxGeometry x="360" y="510" width="90" height="80" as="geometry" />
        </mxCell>
        <mxCell id="GSp_kSGXKq6PRePlWTF6-16" style="edgeStyle=orthogonalEdgeStyle;rounded=0;orthogonalLoop=1;jettySize=auto;html=1;entryX=0.505;entryY=-0.025;entryDx=0;entryDy=0;entryPerimeter=0;" edge="1" parent="1" source="GSp_kSGXKq6PRePlWTF6-11" target="GSp_kSGXKq6PRePlWTF6-10">
          <mxGeometry relative="1" as="geometry">
            <mxPoint x="405" y="530" as="targetPoint" />
          </mxGeometry>
        </mxCell>
        <mxCell id="GSp_kSGXKq6PRePlWTF6-17" style="edgeStyle=orthogonalEdgeStyle;rounded=0;orthogonalLoop=1;jettySize=auto;html=1;entryX=0.81;entryY=0.511;entryDx=0;entryDy=0;entryPerimeter=0;" edge="1" parent="1" source="GSp_kSGXKq6PRePlWTF6-11" target="GSp_kSGXKq6PRePlWTF6-6">
          <mxGeometry relative="1" as="geometry">
            <Array as="points">
              <mxPoint x="405" y="381" />
            </Array>
          </mxGeometry>
        </mxCell>
        <mxCell id="GSp_kSGXKq6PRePlWTF6-24" style="edgeStyle=orthogonalEdgeStyle;rounded=0;orthogonalLoop=1;jettySize=auto;html=1;entryX=0.5;entryY=1;entryDx=0;entryDy=0;" edge="1" parent="1" source="GSp_kSGXKq6PRePlWTF6-11" target="GSp_kSGXKq6PRePlWTF6-14">
          <mxGeometry relative="1" as="geometry">
            <mxPoint x="510" y="399.9999999999999" as="targetPoint" />
            <Array as="points">
              <mxPoint x="510" y="460" />
            </Array>
          </mxGeometry>
        </mxCell>
        <mxCell id="GSp_kSGXKq6PRePlWTF6-11" value="一对一&lt;div&gt;聊天&lt;/div&gt;" style="shape=cube;whiteSpace=wrap;html=1;boundedLbl=1;backgroundOutline=1;darkOpacity=0.05;darkOpacity2=0.1;" vertex="1" parent="1">
          <mxGeometry x="360" y="410" width="90" height="80" as="geometry" />
        </mxCell>
        <mxCell id="GSp_kSGXKq6PRePlWTF6-12" value="日志" style="shape=cube;whiteSpace=wrap;html=1;boundedLbl=1;backgroundOutline=1;darkOpacity=0.05;darkOpacity2=0.1;" vertex="1" parent="1">
          <mxGeometry x="600" y="320" width="90" height="80" as="geometry" />
        </mxCell>
        <mxCell id="GSp_kSGXKq6PRePlWTF6-15" style="edgeStyle=orthogonalEdgeStyle;rounded=0;orthogonalLoop=1;jettySize=auto;html=1;entryX=-0.008;entryY=0.5;entryDx=0;entryDy=0;entryPerimeter=0;" edge="1" parent="1" source="GSp_kSGXKq6PRePlWTF6-14" target="GSp_kSGXKq6PRePlWTF6-12">
          <mxGeometry relative="1" as="geometry">
            <mxPoint x="590" y="360" as="targetPoint" />
          </mxGeometry>
        </mxCell>
        <mxCell id="GSp_kSGXKq6PRePlWTF6-14" value="日志存储" style="rounded=0;whiteSpace=wrap;html=1;" vertex="1" parent="1">
          <mxGeometry x="450" y="330" width="120" height="60" as="geometry" />
        </mxCell>
      </root>
    </mxGraphModel>
  </diagram>
</mxfile>
